<svg width="25" height="25" viewBox="0 0 25 25" fill="none" xmlns="http://www.w3.org/2000/svg">
<rect width="25" height="25" rx="3" fill="white"/>
<path d="M1.77083 19.9998C1.14583 20.8331 0.625 21.4581 0.3125 22.1873C0.208333 22.2914 0 22.8123 0 23.1248V23.5414C0 24.3748 0.625 24.9998 1.45833 24.9998H23.5417C24.375 24.9998 25 24.3748 25 23.5414V6.56226C12.9167 8.64559 5.52083 15.2081 1.77083 19.9998Z" fill="#414142"/>
<path d="M23.5417 0H1.45833C0.625 0 0 0.625 0 1.45833V14.6875C4.375 10.1042 12.1875 5.10417 24.0625 3.64583C24.375 3.64583 25 3.4375 25 2.60417V1.45833C25 0.625 24.375 0 23.5417 0Z" fill="#F58220"/>
</svg>
