<svg width="300" height="300" viewBox="0 0 300 300" fill="none" xmlns="http://www.w3.org/2000/svg">
<path d="M261.214 143.272L300 127.441L288.127 87.0712L246.966 94.9868C240.633 83.905 232.718 73.6148 223.219 65.6992L239.05 26.1214L205.013 7.91557L180.475 42.7441C168.602 39.5778 155.937 37.9947 143.272 38.7863L127.441 0L87.0712 11.8733L94.9868 53.0343C83.905 59.3668 73.6148 67.2823 65.6992 76.781L26.1214 60.9499L7.91557 94.1952L42.7441 118.733C39.5778 130.607 37.9947 143.272 38.7863 155.937L0 171.768L11.8734 212.137L53.0343 204.222C59.3668 215.303 67.2823 225.594 76.781 233.509L60.9499 273.087L94.1952 291.293L118.734 256.464C130.607 259.631 143.272 261.214 155.937 260.422L171.768 299.208L212.137 287.335L204.222 246.174C215.303 239.842 225.594 231.926 233.509 222.427L273.087 238.259L291.293 205.013L256.464 180.475C260.422 168.602 261.214 155.937 261.214 143.272ZM244.591 149.604C244.591 201.847 201.847 244.591 149.604 244.591C97.3615 244.591 54.6174 201.847 54.6174 149.604C54.6174 97.3615 97.3615 54.6174 149.604 54.6174C201.847 54.6174 244.591 97.3615 244.591 149.604Z" fill="white"/>
<path d="M149.609 70.4492C106.073 70.4492 70.4531 106.069 70.4531 149.605C70.4531 193.14 106.073 228.761 149.609 228.761C193.144 228.761 228.764 193.14 228.764 149.605C228.764 106.069 193.144 70.4492 149.609 70.4492ZM133.778 117.943C147.234 117.943 157.524 123.484 157.524 129.816C157.524 136.148 147.234 141.689 133.778 141.689C120.321 141.689 110.031 136.148 110.031 129.816C110.031 123.484 121.113 117.943 133.778 117.943ZM133.778 181.267C120.321 181.267 110.031 175.726 110.031 169.394C110.031 163.061 120.321 157.52 133.778 157.52C147.234 157.52 157.524 163.061 157.524 169.394C157.524 175.726 147.234 181.267 133.778 181.267ZM167.815 204.222C163.065 206.597 157.524 202.639 157.524 197.098C157.524 193.932 159.899 190.766 163.065 189.183C182.063 182.85 189.187 164.644 189.187 149.605C189.187 134.565 181.271 115.568 163.065 110.027C159.899 109.235 157.524 106.069 157.524 102.111C157.524 96.5706 163.065 92.6128 167.815 94.9875C189.187 102.903 205.018 125.067 205.018 149.605C205.018 174.935 189.187 196.307 167.815 204.222Z" fill="white"/>
</svg>
