<svg width="271" height="211" viewBox="0 0 271 211" fill="none" xmlns="http://www.w3.org/2000/svg">
<path fill-rule="evenodd" clip-rule="evenodd" d="M118.157 141.406H137.266C153.272 141.406 166.248 128.431 166.248 112.425V54.4609H250.645C256.274 54.4609 260.837 59.0238 260.837 64.6524V162.108C260.837 167.736 256.274 172.299 250.645 172.299H240.772V194.699C240.772 199.868 234.94 202.884 230.722 199.897L191.746 172.299H128.348C122.72 172.299 118.157 167.736 118.157 162.108V141.406Z" fill="white" fill-opacity="0.17"/>
<path fill-rule="evenodd" clip-rule="evenodd" d="M108.602 141.406V162.108C108.602 173.013 117.443 181.853 128.348 181.853H188.705L225.2 207.695C235.747 215.162 250.327 207.621 250.327 194.699V181.853H250.645C261.55 181.853 270.391 173.013 270.391 162.108V64.6521C270.391 53.7468 261.55 44.9062 250.645 44.9062H166.247V54.4607H250.645C256.274 54.4607 260.837 59.0236 260.837 64.6521V162.108C260.837 167.736 256.274 172.299 250.645 172.299H240.772V194.699C240.772 199.867 234.94 202.884 230.722 199.897L191.746 172.299H128.348C122.72 172.299 118.157 167.736 118.157 162.108V141.406H108.602Z" fill="white"/>
<path fill-rule="evenodd" clip-rule="evenodd" d="M166.247 100.322V91.4046H185.038V82.4871C185.038 80.0246 187.034 78.0283 189.497 78.0283C191.959 78.0283 193.955 80.0246 193.955 82.4871V91.4046H220.071C222.533 91.4046 224.53 93.4008 224.53 95.8633C224.53 98.3258 222.533 100.322 220.071 100.322L208.924 100.322C205.203 108.661 200.642 115.576 195.783 121.238C202.456 127.434 209.091 131.106 213.87 132.892C216.177 133.754 217.827 136.074 217.426 138.504C217.025 140.934 214.726 142.578 212.385 141.813C206.19 139.789 197.806 135.316 189.601 127.667C181.318 135.348 172.834 139.807 166.59 141.823C164.247 142.579 161.948 140.934 161.547 138.505C161.146 136.075 162.795 133.756 165.107 132.907C169.939 131.13 176.676 127.464 183.434 121.224C178.585 115.558 174.026 108.645 170.29 100.322H166.247ZM199.052 100.322H180.172C183.012 105.908 186.243 110.679 189.615 114.723C192.992 110.684 196.222 105.914 199.052 100.322Z" fill="white"/>
<path fill-rule="evenodd" clip-rule="evenodd" d="M14.9686 9.55445C11.9785 9.55445 9.55445 11.9785 9.55445 14.9686V112.424C9.55445 115.414 11.9785 117.838 14.9686 117.838H28.6634V145.015C28.6634 146.307 30.1214 147.061 31.176 146.315L71.3927 117.838H137.266C140.256 117.838 142.68 115.414 142.68 112.424V14.9686C142.68 11.9785 140.256 9.55445 137.266 9.55445H14.9686ZM0 14.9686C0 6.70168 6.70169 0 14.9686 0H137.266C145.533 0 152.234 6.70169 152.234 14.9686V112.424C152.234 120.691 145.533 127.393 137.266 127.393H74.4328L36.6973 154.112C29.315 159.339 19.1089 154.061 19.1089 145.015V127.393H14.9686C6.70169 127.393 0 120.691 0 112.424V14.9686Z" fill="white"/>
<path d="M14.9687 9.55469C11.9785 9.55469 9.5545 11.9787 9.5545 14.9689V112.424C9.5545 115.414 11.9785 117.838 14.9687 117.838H28.6634V145.015C28.6634 146.307 30.1214 147.062 31.176 146.315L71.3927 117.838H137.266C140.256 117.838 142.68 115.414 142.68 112.424V14.9689C142.68 11.9787 140.256 9.55469 137.266 9.55469H14.9687Z" fill="white" fill-opacity="0.17"/>
<path fill-rule="evenodd" clip-rule="evenodd" d="M80.4186 34.8634C79.4234 32.5925 76.7782 31.5521 74.5015 32.5396C73.3419 33.0425 72.501 33.9748 72.0843 35.0697L52.2855 80.7179C51.2958 82.9999 52.3433 85.6521 54.6253 86.6419C56.9073 87.6316 59.5596 86.5841 60.5493 84.3021L65.5457 72.7824H87.0466L92.0405 84.2962C93.0302 86.5782 95.6825 87.6258 97.9645 86.636C100.246 85.6463 101.294 82.994 100.304 80.712L80.4334 34.8975L80.4186 34.8634ZM83.3095 64.1659L76.2962 47.996L69.2829 64.1659H83.3095Z" fill="white"/>
</svg>
