<svg fill="none" height="460" viewBox="0 0 640 460" width="640" xmlns="http://www.w3.org/2000/svg"><g fill="#fff"><path clip-rule="evenodd" d="m432.939 221.659 3.111-17.327c.468-2.608.716-5.311.716-8.091 0-24.966-20.113-45.017-44.692-45.017-7.532 0-14.568 1.858-20.747 5.129l-15.774 8.351-11.978-13.232c-13.265-14.654-33.962-24.522-57.796-24.522-42.919 0-73.682 30.966-73.682 64.437 0 2.097.114 4.163.336 6.195l2.009 18.409-17.569 5.854c-21.592 7.194-37.923 28.55-37.923 54.501 0 32.341 25.098 57.154 54.355 57.154h212.59c29.916 0 54.355-24.398 54.355-54.727 0-21.965-12.841-40.895-31.382-49.619zm-219.634 134.791c-42.694 0-77.305-35.864-77.305-80.104 0-35.679 22.511-65.91 53.619-76.274-.312-2.857-.472-5.755-.472-8.685 0-48.263 43.264-87.387 96.632-87.387 30.158 0 57.089 12.494 74.81 32.07 9.404-4.978 20.117-7.796 31.485-7.796 37.357 0 67.642 30.43 67.642 67.967 0 4.146-.37 8.206-1.077 12.147 26.326 12.386 44.561 39.246 44.561 70.385 0 42.9-34.611 77.677-77.305 77.677z" fill-rule="evenodd"/><path clip-rule="evenodd" d="m258.4 268.475c0-34.629 27.068-62.935 61.2-64.915v-22.979c-46.813 2.003-84.15 40.588-84.15 87.894 0 25.761 11.072 48.936 28.718 65.025h118.514-63.082v-.111c-34.132-1.98-61.2-30.286-61.2-64.914z" fill-rule="evenodd"/><path d="m319.6 180.5c12.675 0 22.95 10.275 22.95 22.95v107.1h-22.95z"/><path d="m394.283 218.6h-51.733v22.95h51.733c5.229 0 9.467-4.238 9.467-9.467v-4.016c0-5.229-4.238-9.467-9.467-9.467z"/><path d="m394.283 264.645h-51.733v22.95h51.733c5.229 0 9.467-4.238 9.467-9.467v-4.016c0-5.228-4.238-9.467-9.467-9.467z"/></g></svg>