<svg width="306" height="211" viewBox="0 0 306 211" fill="none" xmlns="http://www.w3.org/2000/svg">
<path fill-rule="evenodd" clip-rule="evenodd" d="M247.449 98.4245L250.042 83.9851C250.432 81.8113 250.638 79.5596 250.638 77.2428C250.638 56.4376 233.877 39.7284 213.395 39.7284C207.119 39.7284 201.255 41.2767 196.106 44.0026L182.961 50.9613L172.979 39.9348C161.925 27.7234 144.677 19.5 124.816 19.5C89.0499 19.5 63.4145 45.3051 63.4145 73.1971C63.4145 74.9447 63.5096 76.6667 63.6944 78.3603L65.3681 93.7011L50.7276 98.579C32.7343 104.574 19.125 122.371 19.125 143.996C19.125 170.948 40.0402 191.625 64.4211 191.625H241.579C266.509 191.625 286.875 171.293 286.875 146.019C286.875 127.715 276.174 111.94 260.723 104.67L247.449 98.4245ZM64.4211 210.75C28.8423 210.75 0 180.863 0 143.996C0 114.264 18.7592 89.0717 44.6822 80.4346C44.4224 78.054 44.2895 75.6396 44.2895 73.1971C44.2895 32.9786 80.3423 0.375 124.816 0.375C149.948 0.375 172.39 10.7864 187.158 27.0999C194.994 22.9514 203.922 20.6034 213.395 20.6034C244.526 20.6034 269.763 45.9617 269.763 77.2428C269.763 80.6978 269.455 84.0806 268.866 87.3649C290.804 97.687 306 120.07 306 146.019C306 181.769 277.158 210.75 241.579 210.75H64.4211Z" fill="white"/>
<path fill-rule="evenodd" clip-rule="evenodd" d="M102 137.438C102 108.581 124.557 84.9924 153 83.3425V64.1934C113.989 65.8622 82.875 98.0164 82.875 137.438C82.875 158.905 92.1021 178.218 106.807 191.626H205.568C205.569 191.626 205.569 191.625 205.569 191.625H156.188H153V191.533C124.557 189.883 102 166.295 102 137.438Z" fill="white"/>
<path d="M153 64.125Lnan nanL153 64.125C163.562 64.125 172.125 72.6876 172.125 83.25V172.5H153V64.125Z" fill="white"/>
<path d="M172.125 96H217.866C220.77 96 223.125 98.3547 223.125 101.259V109.866C223.125 112.77 220.77 115.125 217.866 115.125H172.125V96Z" fill="white"/>
<path d="M172.125 134.246H215.236C219.593 134.246 223.125 137.778 223.125 142.135V145.482C223.125 149.839 219.593 153.371 215.236 153.371H172.125V134.246Z" fill="white"/>
</svg>
