<svg fill="none" height="460" viewBox="0 0 640 460" width="640" xmlns="http://www.w3.org/2000/svg" xmlns:xlink="http://www.w3.org/1999/xlink"><clipPath id="a"><path d="m141 91h357.72v278.52h-357.72z"/></clipPath><g clip-path="url(#a)" fill="#fff"><g clip-rule="evenodd" fill-rule="evenodd"><path d="m296.969 277.656h25.224c21.128 0 38.256-17.127 38.256-38.255v-76.513h111.404c7.43 0 13.453 6.023 13.453 13.453v128.642c0 7.429-6.023 13.452-13.453 13.452h-13.032v29.568c0 6.823-7.699 10.804-13.266 6.861l-51.449-36.429h-83.685c-7.429 0-13.452-6.023-13.452-13.452z" fill-opacity=".17"/><path d="m284.352 277.656v27.326c0 14.395 11.67 26.064 26.064 26.064h79.672l48.173 34.111c13.922 9.857 33.168-.097 33.168-17.154v-16.957h.419c14.395 0 26.065-11.669 26.065-26.064v-128.641c0-14.395-11.67-26.065-26.065-26.065h-111.405v12.612h111.405c7.431 0 13.454 6.023 13.454 13.453v128.641c0 7.429-6.023 13.453-13.454 13.453h-13.032v29.568c0 6.821-7.698 10.804-13.266 6.861l-51.448-36.429h-83.686c-7.429 0-13.452-6.024-13.452-13.453v-27.326z"/><path d="m360.448 223.425v-11.771h24.804v-11.771c0-3.251 2.634-5.886 5.886-5.886 3.249 0 5.884 2.635 5.884 5.886v11.771h34.473c3.25 0 5.886 2.635 5.886 5.886 0 3.25-2.636 5.885-5.886 5.885h-14.714c-4.912 11.007-10.932 20.135-17.346 27.609 8.808 8.179 17.567 13.026 23.875 15.383 3.045 1.138 5.223 4.201 4.694 7.408-.53 3.208-3.564 5.378-6.654 4.368-8.178-2.672-19.245-8.576-30.075-18.673-10.934 10.139-22.133 16.025-30.375 18.686-3.092.998-6.127-1.173-6.656-4.379-.53-3.208 1.647-6.269 4.699-7.39 6.378-2.345 15.271-7.185 24.191-15.421-6.4-7.479-12.418-16.605-17.35-27.591zm43.302 0h-24.921c3.748 7.374 8.013 13.671 12.464 19.009 4.458-5.331 8.722-11.628 12.457-19.009z"/><path d="m160.759 103.612c-3.947 0-7.147 3.2-7.147 7.147v128.641c0 3.946 3.2 7.146 7.147 7.146h18.077v35.874c0 1.705 1.924 2.701 3.316 1.716l53.086-37.59h86.953c3.947 0 7.147-3.2 7.147-7.146v-128.641c0-3.947-3.2-7.147-7.147-7.147zm-19.759 7.147c0-10.9128 8.846-19.759 19.759-19.759h161.432c10.913 0 19.758 8.8462 19.758 19.759v128.641c0 10.912-8.845 19.759-19.758 19.759h-82.94l-49.811 35.269c-9.744 6.899-23.216-.067-23.216-12.008v-23.261h-5.465c-10.913 0-19.759-8.847-19.759-19.759z"/></g><path d="m160.756 103.612c-3.947 0-7.147 3.2-7.147 7.147v128.641c0 3.947 3.2 7.146 7.147 7.146h18.077v35.874c0 1.705 1.925 2.702 3.317 1.716l53.086-37.59h86.953c3.946 0 7.146-3.199 7.146-7.146v-128.641c0-3.947-3.2-7.147-7.146-7.147z" fill-opacity=".17"/><path clip-rule="evenodd" d="m247.152 137.02c-1.314-2.998-4.806-4.371-7.811-3.068-1.531.664-2.641 1.895-3.191 3.34l-26.134 60.256c-1.307 3.012.076 6.513 3.088 7.819 3.013 1.307 6.514-.076 7.82-3.088l6.595-15.206h28.381l6.592 15.198c1.307 3.012 4.808 4.395 7.82 3.088 3.012-1.306 4.395-4.807 3.088-7.819l-26.229-60.475zm3.816 38.679-9.258-21.344-9.258 21.344z" fill-rule="evenodd"/></g></svg>