<svg fill="none" height="460" viewBox="0 0 640 460" width="640" xmlns="http://www.w3.org/2000/svg"><g fill="#fff"><path d="m431.214 223.272 38.786-15.831-11.873-40.37-41.161 7.916c-6.333-11.082-14.248-21.372-23.747-29.288l15.831-39.578-34.037-18.2054-24.538 34.8284c-11.873-3.166-24.538-4.749-37.203-3.958l-15.831-38.786-40.37 11.8733 7.916 41.1607c-11.082 6.333-21.372 14.248-29.288 23.747l-39.578-15.831-18.205 33.245 34.828 24.538c-3.166 11.874-4.749 24.539-3.958 37.204l-38.786 15.831 11.873 40.369 41.161-7.915c6.333 11.081 14.248 21.372 23.747 29.287l-15.831 39.578 33.245 18.206 24.539-34.829c11.873 3.167 24.538 4.75 37.203 3.958l15.831 38.786 40.369-11.873-7.915-41.161c11.081-6.332 21.372-14.248 29.287-23.747l39.578 15.832 18.206-33.246-34.829-24.538c3.958-11.873 4.75-24.538 4.75-37.203zm-16.623 6.332c0 52.243-42.744 94.987-94.987 94.987s-94.987-42.744-94.987-94.987 42.744-94.987 94.987-94.987 94.987 42.744 94.987 94.987z"/><path d="m319.609 150.449c-43.536 0-79.156 35.62-79.156 79.156 0 43.535 35.62 79.156 79.156 79.156 43.535 0 79.155-35.621 79.155-79.156 0-43.536-35.62-79.156-79.155-79.156zm-15.831 47.494c13.456 0 23.746 5.541 23.746 11.873s-10.29 11.873-23.746 11.873c-13.457 0-23.747-5.541-23.747-11.873s11.082-11.873 23.747-11.873zm0 63.324c-13.457 0-23.747-5.541-23.747-11.873 0-6.333 10.29-11.874 23.747-11.874 13.456 0 23.746 5.541 23.746 11.874 0 6.332-10.29 11.873-23.746 11.873zm34.037 22.955c-4.75 2.375-10.291-1.583-10.291-7.124 0-3.166 2.375-6.332 5.541-7.915 18.998-6.333 26.122-24.539 26.122-39.578 0-15.04-7.916-34.037-26.122-39.578-3.166-.792-5.541-3.958-5.541-7.916 0-5.54 5.541-9.498 10.291-7.124 21.372 7.916 37.203 30.08 37.203 54.618 0 25.33-15.831 46.702-37.203 54.617z"/></g></svg>